<?xml version="1.0" encoding="utf-8"?>
<!-- Generator: Adobe Illustrator 18.1.1, SVG Export Plug-In . SVG Version: 6.00 Build 0)  -->
<!DOCTYPE svg PUBLIC "-//W3C//DTD SVG 1.1//EN" "http://www.w3.org/Graphics/SVG/1.1/DTD/svg11.dtd">
<svg version="1.1" id="Layer_1" xmlns="http://www.w3.org/2000/svg" xmlns:xlink="http://www.w3.org/1999/xlink" x="0px" y="0px"
	 viewBox="0 0 1280 800" enable-background="new 0 0 1280 800" xml:space="preserve">
<g id="Epilogue" display="none">
</g>
<g id="Layer_2" display="none">
</g>
<g id="Layer_3" display="none">
</g>
<g id="Layer_4" display="none">
</g>
<g id="Layer_5" display="none">
</g>
<g id="Layer_6" display="none">
</g>
<g id="Layer_7" display="none">
	<g display="inline">
		<path fill="#666666" d="M593.4,814.1L546,793.4l278-631.3l-17.3,4.9l-14-49.8l24.9-7c11.8-3.3,22.8-6.7,33.7-9.7l93.6-212.7
			l12.8-3c86-19.7,164.1,7.6,178,62c10.6,41.3-9.7,119.4-246.4,196L593.4,814.1z M981.3-67.3L917.2,78.3
			c145.8-54.1,172-102.4,168-118.5c-2.4-9.4-14.9-18.5-33.1-24C1032.1-70.6,1006.6-71.5,981.3-67.3z"/>
	</g>
	<g display="inline">
		<path fill="#666666" d="M404.4,497.8c-20.4,0-40.1-2.7-58-9.7c-35.2-13.1-59.5-39.2-72.9-77.2c-10.3-29.8-7.6-58.9,7.9-87.2
			c17.9-32.8,53.8-63.8,106.6-91.8c-3.9-1.8-7.6-3.6-10.6-5.8c-30.4-20.4-39.2-55.3-24.9-95.7c13.7-38.3,48.3-81.7,92.7-116.4
			c47.7-37.1,97.2-56.5,135.8-52.6c15.8,1.5,38.9,7.6,56.8,28.9c6.1-14.6,13.1-30.4,19.4-45.6l10-23.7l47.7,20.1l-10,23.7
			c0,0.3-10.6,25.5-21.3,50.4c-6.4,14.6-11.2,26.4-15.2,34.6c-2.4,5.2-4.3,9.1-5.5,12.2c-10,20.4-24.6,19.7-32.2,17.6
			c-10.6-3-18.2-11.8-19.1-22.8c-6.7-41.3-27.3-43.1-35.2-44.1c-52.6-4.9-152.5,72-175,134.9c-9.4,25.8,0.6,32.8,4.9,35.5
			c13.1,8.8,57.7,8.2,115.5-5.5c29.2-9.1,49.5-14,50.7-14.3l14,49.5c-1.2,0.3-20.7,6.7-48,13.4c-72.6,22.8-181.4,66.8-211.8,122.1
			c-8.5,15.2-9.7,29.8-4.3,45.6c7.9,23.1,21.9,38,42.2,45.9c63.5,24,174.7-25.5,212.1-46.5l22.5-12.8l25.2,45l-22.5,12.8
			C596.7,441.3,495.2,497.8,404.4,497.8z"/>
	</g>
</g>
<g id="Layer_8" display="none">
</g>
<g id="Layer_9">
	<g>
		<path fill="#FFFFFF" d="M20.1,316.1h-2.1l0.3-14.6h59.2l0.3,14.6H76c-0.6-3.9-1.5-7-2.7-8.8c-1.2-1.8-2.4-2.7-3.9-3.3
			c-1.5-0.3-3.6-0.6-7-0.6h-9.7v43.1c0,4.9,0,7.9,0.3,9.4c0.3,1.5,0.9,2.7,1.8,3.3c0.9,0.6,2.7,1.2,5.5,1.2h3v2.1H32.8v-2.1h3
			c2.7,0,4.6-0.3,5.5-0.9s1.5-1.8,1.8-3c0.3-1.5,0.3-4.6,0.3-9.7v-43.4h-9.1c-3.9,0-6.7,0.3-7.9,0.6c-1.2,0.6-2.4,1.5-3.6,3.3
			C21.6,309.5,20.7,312.2,20.1,316.1z"/>
		<path fill="#FFFFFF" d="M96,331.6c1.8-2.4,3.9-4.6,6.1-5.8c2.1-1.2,4.6-1.8,7.3-1.8c3,0,5.5,0.6,7.6,1.8c2.1,1.2,3.3,2.7,3.9,4.6
			c0.6,1.8,0.9,4.9,0.9,9.1v10.3c0,4.3,0,7,0.3,7.9s0.6,1.5,1.5,2.1c0.9,0.3,2.4,0.6,4.6,0.6v2.1h-19.1v-2.1h0.9
			c2.1,0,3.6-0.3,4.3-0.9s0.9-1.5,1.2-2.1c0-0.9,0.3-3.3,0.3-7.3v-11.2c0-3-0.3-5.5-0.6-6.7c-0.3-1.5-1.2-2.7-2.4-3.6
			c-1.2-0.9-3-1.5-5.2-1.5c-2.4,0-4.6,0.6-6.4,2.1s-3.6,3.3-4.9,6.1v14.9c0,4.3,0,6.7,0.3,7.6c0,0.9,0.6,1.8,1.5,2.1
			c0.9,0.6,2.1,0.6,4.3,0.6v2.1H83.6v-2.1h0.9c2.1,0,3.6-0.3,4.3-0.9s0.9-1.2,1.2-2.1c0-0.9,0.3-3.3,0.3-7.6v-36.8
			c0-3.6-0.3-6.1-0.9-7s-2.4-1.5-5.2-1.5v-2.1c4.6,0,8.5-0.6,11.5-1.8h0.9v31H96z"/>
		<path fill="#FFFFFF" d="M166.8,338H141c0,1.8-0.3,3-0.3,3.9c0,6.4,0.9,11.2,3,14.6s5.2,4.9,9.1,4.9c5.5,0,9.4-2.4,11.5-7.3h2.1
			c-0.9,3-2.7,5.5-5.8,7.3c-2.7,1.8-6.1,2.7-9.4,2.7c-3,0-6.1-0.9-8.8-2.4c-2.7-1.5-5.2-3.9-6.7-6.7c-1.5-2.7-2.7-6.4-2.7-10.6
			c0-5.8,1.8-10.6,5.2-14.6s7.6-5.8,12.8-5.8c4.9,0,8.5,1.5,11.2,4.6C165.3,331.6,166.8,334.7,166.8,338z M158.9,336.2
			c0-0.6,0-1.2,0-1.8c0-2.7-0.9-4.6-2.4-6.1s-3.3-2.1-5.8-2.1c-5.5,0-8.8,3.3-9.7,10.3h17.9V336.2z"/>
		<path fill="#FFFFFF" d="M233.3,340.1h-23.1l-1.5,3.9c-2.4,5.5-3.6,9.4-3.6,10.9c0,1.8,0.6,3.3,1.8,4.3c1.2,0.9,2.7,1.5,4.9,1.5
			v2.1h-18.2v-2.4c2.7-0.3,4.9-1.5,6.1-2.7c1.2-1.5,3-4.6,4.9-9.4c0-0.3,0.9-2.1,2.1-5.2l17.6-42.5h1.8l20.4,48.6l2.7,6.4
			c0.6,1.5,1.5,2.4,2.4,3.3s2.7,1.2,4.9,1.5v2.1h-24v-2.1c3,0,4.9-0.3,6.1-0.6c0.9-0.3,1.5-1.2,1.5-2.7c0-0.6-0.6-2.7-2.1-5.8
			L233.3,340.1z M232.4,338l-10.6-26.1L211.2,338H232.4z"/>
		<path fill="#FFFFFF" d="M262.5,359.3c0-1.2,0.6-2.4,1.5-3.3c0.9-0.9,2.1-1.5,3.3-1.5c1.2,0,2.4,0.6,3.3,1.5
			c0.9,0.9,1.5,2.1,1.5,3.3c0,1.2-0.6,2.4-1.5,3.3c-0.9,0.9-2.1,1.5-3.3,1.5c-1.2,0-2.4-0.6-3.3-1.5
			C263.1,361.7,262.5,360.5,262.5,359.3z"/>
		<path fill="#FFFFFF" d="M307.5,362v-19.7h2.1c2.4,12.8,8.5,19.1,18.2,19.1c4.3,0,7.6-1.2,10-3.6s3.6-5.2,3.6-8.2s-0.9-5.8-3-7.6
			c-2.1-2.1-5.8-4.3-11.2-6.7c-4.9-2.1-8.5-3.9-11.2-5.5c-2.7-1.5-4.6-3.6-5.8-6.1c-1.5-2.4-2.1-5.2-2.1-8.2c0-4.3,1.5-7.9,4.6-10.9
			c3-3,7-4.3,11.5-4.3c2.7,0,5.2,0.3,7.3,1.2s4.6,2.7,7,5.2c1.5-1.5,2.1-3.3,2.4-5.5h2.1v16.1h-2.1c-1.2-4.6-3-8.2-6.1-10.9
			c-3-2.7-6.4-3.9-10-3.9c-3.6,0-6.4,0.9-7.9,3c-1.5,2.1-2.4,4.3-2.4,6.4c0,2.7,1.2,5.2,3.3,7.3c2.1,2.1,5.8,4.3,11.5,6.7
			c5.2,2.4,9.1,4.3,11.5,5.8c2.4,1.5,4.3,3.3,5.8,6.1c1.5,2.4,2.1,5.5,2.1,8.8c0,5.2-1.8,9.4-5.2,12.8c-3.3,3.3-8.2,4.9-14,4.9
			c-6.7,0-12.2-2.4-16.7-7.6c-0.9,1.5-1.8,3.3-2.1,6.1h-3.3V362z"/>
		<path fill="#FFFFFF" d="M391.6,324h1.5v48.6c0,3.9,0,6.4,0.3,7.3c0.3,0.9,0.6,1.8,1.2,2.4c0.6,0.6,2.1,0.9,3.9,0.9h0.9v2.1h-19.7
			v-2.1h1.5c1.8,0,3-0.3,3.9-0.6c0.9-0.6,1.2-1.2,1.5-2.1c0-0.9,0.3-3.6,0.3-7.9v-13.1c-2.1,1.5-4.3,2.7-6.7,3.3
			c-2.1,0.9-4.6,1.2-6.7,1.2c-5.2,0-9.4-1.8-12.8-5.2c-3.3-3.6-5.2-8.2-5.2-14c0-6.1,1.8-11.2,5.8-14.9c3.9-3.6,8.2-5.8,12.8-5.8
			c2.1,0,3.9,0.3,6.1,1.2s4.3,2.1,6.4,3.6C388.3,328,390.1,326.2,391.6,324z M386.8,331.6c-1.8-1.5-3.6-2.7-5.5-3.6
			c-1.8-0.9-3.6-1.2-5.8-1.2c-3.3,0-6.4,1.2-8.8,3.9c-2.4,2.7-3.6,7.3-3.6,14.3c0,5.5,0.9,9.7,3,12.5c2.1,2.7,5.2,4.3,8.8,4.3
			c2.1,0,3.9-0.3,6.1-1.2c1.8-0.6,3.9-1.8,5.8-3.3V331.6z"/>
		<path fill="#FFFFFF" d="M440.5,325.6v24.3c0,3.9,0,6.7,0.3,7.6c0,0.9,0.6,1.8,1.2,2.4c0.6,0.6,2.1,0.9,4.3,0.9v2.1
			c-4.6,0-7.9,0.6-10,1.5h-0.6c-0.9-1.5-1.5-4.6-1.5-8.5c-1.8,2.7-3.9,4.9-6.4,6.4c-2.4,1.5-4.9,2.1-7.9,2.1c-2.4,0-4.6-0.6-6.7-1.8
			c-2.1-1.2-3.3-2.4-3.9-4.3c-0.6-1.5-0.9-3.9-0.9-7.3v-12.5c0-4.3,0-7-0.3-7.9c0-0.9-0.6-1.5-1.5-2.1c-0.9-0.3-2.1-0.6-4.3-0.6
			v-2.1h12.5v25.5c0,2.4,0,4.3,0.3,5.5c0.3,1.2,1.2,2.1,2.4,3c1.2,0.9,2.7,1.2,4.3,1.2c2.4,0,4.6-0.6,6.7-2.1c2.1-1.5,3.6-3,4.3-4.9
			c0.9-1.8,1.2-4.3,1.2-7.3v-8.2c0-3.9,0-6.4,0-7.3s-0.6-1.5-1.2-2.4s-2.1-0.9-4.3-0.9h-0.9v-2.1h13.1V325.6z"/>
		<path fill="#FFFFFF" d="M489.2,355.9h1.5c-0.3,5.2-2.7,7.6-7.6,7.6c-2.1,0-3.6-0.6-4.9-1.5c-1.2-1.2-1.8-2.7-2.4-4.9
			c-3,2.1-5.8,3.6-8.2,4.9s-4.6,1.5-6.7,1.5c-2.4,0-4.6-0.6-6.4-2.1c-1.8-1.5-2.7-3.3-2.7-5.8c0-3,1.5-5.8,4.6-8.2s7.3-4.6,12.5-6.7
			l7-2.7v-1.8c0-2.4-0.3-4.3-0.6-5.5c-0.3-1.2-1.2-2.1-2.4-3c-1.2-0.9-3.3-1.2-5.5-1.2c-4.6,0-7,1.5-7.6,4.6c-0.6,3-1.8,4.6-3.6,4.6
			c-1.8,0-2.7-0.9-2.7-2.7s1.2-3.6,3.6-5.5c2.4-1.8,6.1-3,11.2-3c3.9,0,6.7,0.6,8.8,1.8c2.1,1.2,3.6,2.4,4.3,4.3
			c0.6,1.5,0.9,3.9,0.9,7v14.9c0,3.3,0.3,5.8,0.6,6.7c0.3,0.9,1.2,1.5,2.4,1.5C487.3,360.2,488.5,358.7,489.2,355.9z M476.1,340.1
			l-4.9,2.1c-7.9,3-11.5,7-11.5,11.8c0,1.8,0.6,3.3,1.5,4.6c0.9,1.2,2.4,1.8,3.9,1.8c1.5,0,3-0.6,4.9-1.5c1.8-0.9,3.9-2.4,6.4-4.3
			v-14.6H476.1z"/>
		<path fill="#FFFFFF" d="M507.1,333.5c0.9-2.7,2.7-4.9,4.9-6.7c2.4-1.8,4.6-2.7,6.7-2.7c2.1,0,3.6,0.6,4.6,1.8
			c1.2,1.2,1.8,2.4,1.8,3.6c0,0.9-0.3,1.5-0.9,2.1c-0.6,0.6-1.2,0.9-2.1,0.9c-1.5,0-2.7-1.2-3.3-3.3c-0.6-1.5-1.2-2.1-2.4-2.1
			c-1.2,0-2.7,0.9-4.6,2.7c-1.8,1.8-3,3.6-3.3,5.5c-0.6,1.8-0.9,4.6-0.9,7.9v6.7c0,3.9,0,6.4,0.3,7.3c0,0.9,0.6,1.8,1.2,2.4
			s2.1,0.9,3.9,0.9h1.2v2.1h-19.7v-2.1h0.9c1.8,0,3-0.3,3.9-0.6c0.9-0.6,1.2-1.2,1.5-2.1c0-0.9,0.3-3.3,0.3-7.9v-10.3
			c0-3.9,0-6.4-0.3-7.6c-0.3-1.2-0.6-1.8-1.2-2.4s-2.1-0.9-3.9-0.9h-0.9v-2.1c2.7-0.3,6.4-1.2,11.2-2.7
			C506.5,326.5,507.1,329.8,507.1,333.5z"/>
		<path fill="#FFFFFF" d="M561.5,338h-25.8c0,1.8-0.3,3-0.3,3.9c0,6.4,0.9,11.2,3,14.6c2.1,3.3,5.2,4.9,9.1,4.9
			c5.5,0,9.4-2.4,11.5-7.3h2.1c-0.9,3-2.7,5.5-5.8,7.3c-2.7,1.8-6.1,2.7-9.4,2.7c-3,0-6.1-0.9-8.8-2.4c-2.7-1.5-5.2-3.9-6.7-6.7
			c-1.5-2.7-2.7-6.4-2.7-10.6c0-5.8,1.8-10.6,5.2-14.6c3.3-3.9,7.6-5.8,12.8-5.8c4.9,0,8.5,1.5,11.2,4.6
			C559.9,331.6,561.2,334.7,561.5,338z M553.6,336.2c0-0.6,0-1.2,0-1.8c0-2.7-0.9-4.6-2.4-6.1s-3.3-2.1-5.8-2.1
			c-5.5,0-8.8,3.3-9.7,10.3h17.9V336.2z"/>
		<path fill="#FFFFFF" d="M630.7,352l22.5-50.4h18.8v2.1h-2.1c-3,0-4.9,0.3-5.8,0.6c-0.9,0.6-1.5,1.5-1.8,2.7
			c-0.3,1.2-0.6,4.6-0.6,9.7v30.1c0,4.9,0,7.9,0.3,9.4s0.9,2.7,1.8,3.3c0.9,0.6,2.7,1.2,5.5,1.2h2.7v2.1h-29.2v-2.4h2.1
			c2.7,0,4.3-0.3,5.5-0.9c0.9-0.6,1.5-1.8,1.8-3c0.3-1.5,0.3-4.6,0.3-9.7v-39.2l-24.3,54.7h-2.1l-24.3-54.7v35.9c0,4.9,0,8.2,0.3,10
			c0.3,1.8,1.2,3.3,2.7,4.6c1.5,1.2,3.6,2.1,6.7,2.4v2.1h-21.9v-2.1c2.7,0,4.9-0.9,6.4-2.1c1.5-1.2,2.7-2.7,3-4.9
			c0.3-1.8,0.6-5.5,0.6-10.3v-26.7c0-4.9,0-7.9-0.3-9.4c-0.3-1.5-0.9-2.4-1.8-3c-0.9-0.6-3-0.9-6.1-0.9H590v-1.5h18.5L630.7,352z"/>
		<path fill="#FFFFFF" d="M710.6,338h-25.8c0,1.8-0.3,3-0.3,3.9c0,6.4,0.9,11.2,3,14.6c2.1,3.3,5.2,4.9,9.1,4.9
			c5.5,0,9.4-2.4,11.5-7.3h2.1c-0.9,3-2.7,5.5-5.8,7.3c-2.7,1.8-6.1,2.7-9.4,2.7c-3,0-6.1-0.9-8.8-2.4c-2.7-1.5-5.2-3.9-6.7-6.7
			c-1.5-2.7-2.7-6.4-2.7-10.6c0-5.8,1.8-10.6,5.2-14.6c3.3-3.9,7.6-5.8,12.8-5.8c4.9,0,8.5,1.5,11.2,4.6
			C709.1,331.6,710.3,334.7,710.6,338z M702.7,336.2c0-0.6,0-1.2,0-1.8c0-2.7-0.9-4.6-2.4-6.1s-3.3-2.1-5.8-2.1
			c-5.5,0-8.8,3.3-9.7,10.3h17.9V336.2z"/>
		<path fill="#FFFFFF" d="M727,324h0.3c0.9,2.1,1.2,4.6,1.2,7.9c2.1-2.7,4.3-4.6,6.4-5.8c2.4-1.2,4.9-1.8,7.6-1.8
			c3,0,5.5,0.6,7.3,2.1c1.8,1.5,3.3,3.3,3.9,6.1c2.4-2.7,4.6-4.9,7-6.1c2.4-1.5,4.9-2.1,7.3-2.1c2.7,0,5.2,0.6,7.3,2.1
			c2.1,1.2,3,2.7,3.6,4.6c0.3,1.8,0.6,4.6,0.6,8.2v11.2c0,4.3,0,7,0.3,7.9c0.3,0.9,0.6,1.5,1.5,2.1c0.9,0.3,2.1,0.6,4.6,0.6v2.1
			h-18.5v-2.7c1.8,0,3.3-0.3,4.3-0.6c0.9-0.3,1.2-1.2,1.5-2.1s0.3-3.6,0.3-7.9v-12.5c0-2.4,0-4.3-0.3-5.8c-0.3-1.2-0.9-2.4-2.1-3.3
			c-1.2-0.9-2.7-1.2-4.6-1.2s-3.9,0.6-5.8,2.1c-1.8,1.5-3.9,3.3-6.1,6.1v14.6c0,3.9,0,6.4,0.3,7.3c0,0.9,0.6,1.8,1.2,2.4
			c0.6,0.6,2.1,0.9,3.9,0.9v2.1h-17.9v-2.1c2.1,0,3.3-0.3,4.3-0.6c0.9-0.3,1.2-1.2,1.5-1.8c0.3-0.6,0.3-3.6,0.3-7.9v-10.3
			c0-3.3,0-5.5-0.3-7s-0.9-2.7-2.4-3.6c-1.2-0.9-3-1.5-4.9-1.5s-3.6,0.6-5.8,1.8c-2.1,1.2-3.9,3-6.1,5.5v15.5c0,3.9,0,6.7,0.3,7.6
			s0.6,1.8,1.2,2.1c0.6,0.3,2.1,0.9,4.3,0.9v2.1h-18.2v-2.7c2.1,0,3.3-0.3,4.3-0.6c0.9-0.3,1.2-1.2,1.5-1.8c0.3-0.9,0.3-3.6,0.3-7.9
			v-10.9c0-4.3,0-6.7-0.3-7.6c0-0.9-0.6-1.5-1.5-2.1c-0.9-0.6-2.1-0.6-4.3-0.6v-2.1C720.7,325.9,724.3,325,727,324z"/>
		<path fill="#FFFFFF" d="M791.5,344.1c0-5.8,1.8-10.3,5.8-14.3c3.6-3.6,8.5-5.8,14-5.8c5.5,0,10.3,1.8,14,5.8s5.8,8.5,5.8,14.3
			c0,6.1-1.8,11.2-5.8,14.6s-8.5,5.5-14,5.5c-5.5,0-10-1.8-14-5.5C793.6,355,791.5,350.2,791.5,344.1z M799.1,344.4
			c0,6.7,1.2,11.2,3.3,13.7s5.2,3.9,9.1,3.9s7-1.2,9.1-3.9c2.1-2.7,3-7.3,3-13.7s-0.9-11.2-3-14c-2.1-2.7-5.2-4.3-9.1-4.3
			s-7,1.5-9.1,4.3C800,333.2,799.1,337.7,799.1,344.4z"/>
		<path fill="#FFFFFF" d="M849.8,333.5c0.9-2.7,2.7-4.9,4.9-6.7c2.4-1.8,4.6-2.7,6.7-2.7c2.1,0,3.6,0.6,4.6,1.8
			c1.2,1.2,1.8,2.4,1.8,3.6c0,0.9-0.3,1.5-0.9,2.1c-0.6,0.6-1.2,0.9-2.1,0.9c-1.5,0-2.7-1.2-3.3-3.3c-0.6-1.5-1.2-2.1-2.4-2.1
			s-2.7,0.9-4.6,2.7s-3,3.6-3.3,5.5c-0.6,1.8-0.9,4.6-0.9,7.9v6.7c0,3.9,0,6.4,0.3,7.3c0,0.9,0.6,1.8,1.2,2.4
			c0.6,0.6,2.1,0.9,3.9,0.9h1.2v2.1H837v-2.1h0.9c1.8,0,3-0.3,3.9-0.6c0.9-0.6,1.2-1.2,1.5-2.1c0-0.9,0.3-3.3,0.3-7.9v-10.3
			c0-3.9,0-6.4-0.3-7.6c-0.3-1.2-0.6-1.8-1.2-2.4c-0.6-0.6-2.1-0.9-3.9-0.9h-0.9v-2.1c2.7-0.3,6.4-1.2,11.2-2.7
			C849.2,326.5,849.5,329.8,849.8,333.5z"/>
		<path fill="#FFFFFF" d="M882.9,324v25.8c0,3.9,0,6.4,0.3,7.3c0,0.9,0.6,1.8,1.2,2.4c0.6,0.6,2.1,0.9,3.9,0.9h0.9v2.1h-19.7v-2.1
			h1.5c2.1,0,3.6-0.3,4.3-0.9c0.6-0.6,0.9-1.2,1.2-2.1s0.3-3.3,0.3-7.6v-11.2c0-4.3-0.3-7-0.6-7.9s-0.9-1.5-1.5-1.8
			s-1.8-0.3-3.6-0.3h-1.2v-2.1c5.5-0.6,9.4-1.2,12.5-2.4C882.3,324,882.9,324,882.9,324z M874.1,305.2c0-1.2,0.6-2.4,1.5-3.3
			c0.9-0.9,2.1-1.5,3.3-1.5s2.4,0.6,3.3,1.5c0.9,0.9,1.2,2.1,1.2,3.3c0,1.2-0.3,2.4-1.2,3.3c-0.9,0.9-2.1,1.5-3.3,1.5
			s-2.4-0.6-3.3-1.5S874.1,306.7,874.1,305.2z"/>
		<path fill="#FFFFFF" d="M931.8,355.9h1.5c-0.3,5.2-2.7,7.6-7.6,7.6c-2.1,0-3.6-0.6-4.9-1.5c-1.2-1.2-1.8-2.7-2.4-4.9
			c-3,2.1-5.8,3.6-8.2,4.9c-2.4,1.2-4.6,1.5-6.7,1.5c-2.4,0-4.6-0.6-6.4-2.1c-1.8-1.5-2.7-3.3-2.7-5.8c0-3,1.5-5.8,4.6-8.2
			c3-2.4,7.3-4.6,12.5-6.7l7-2.7v-1.8c0-2.4-0.3-4.3-0.6-5.5c-0.3-1.2-1.2-2.1-2.4-3c-1.2-0.9-3.3-1.2-5.5-1.2c-4.6,0-7,1.5-7.6,4.6
			c-0.6,3-1.8,4.6-3.6,4.6c-1.8,0-2.7-0.9-2.7-2.7s1.2-3.6,3.6-5.5c2.4-1.8,6.1-3,11.2-3c3.9,0,6.7,0.6,8.8,1.8
			c2.1,1.2,3.6,2.4,4.3,4.3c0.6,1.5,0.9,3.9,0.9,7v14.9c0,3.3,0.3,5.8,0.6,6.7s1.2,1.5,2.4,1.5C930,360.2,931.2,358.7,931.8,355.9z
			 M918.8,340.1l-4.9,2.1c-7.9,3-11.5,7-11.5,11.8c0,1.8,0.6,3.3,1.5,4.6c0.9,1.2,2.4,1.8,3.9,1.8s3-0.6,4.9-1.5s3.9-2.4,6.4-4.3
			v-14.6H918.8z"/>
		<path fill="#FFFFFF" d="M948.5,300.7v49.2c0,3.9,0,6.4,0.3,7.3c0,0.9,0.6,1.8,1.2,2.4c0.6,0.6,2.1,0.9,3.9,0.9h1.2v2.1h-19.7v-2.1
			h1.2c1.8,0,3-0.3,3.9-0.6c0.9-0.6,1.2-1.2,1.5-2.1c0-0.9,0.3-3.3,0.3-7.9v-36.5c0-3.9-0.3-6.4-0.9-7.3c-0.6-0.9-2.4-1.5-5.2-1.5
			v-2.1c1.8,0,3.9-0.3,6.4-0.6c2.4-0.3,4.3-0.9,5.2-1.2H948.5z"/>
		<path fill="#FFFFFF" d="M1034.5,344.7l-0.3,17.9h-52v-2.1h1.8c2.7,0,4.6-0.3,5.5-0.9s1.5-1.8,1.8-3c0.3-1.5,0.3-4.6,0.3-9.7v-30.1
			c0-4.9,0-7.9-0.3-9.4s-0.9-2.4-1.8-3c-0.9-0.6-3-0.9-6.1-0.9h-1.2v-1.8h29.5v2.1h-2.7c-3,0-4.9,0.3-5.8,0.6
			c-0.9,0.3-1.5,1.5-1.8,2.7c-0.3,1.2-0.6,4.6-0.6,9.7v31.9c0,4.6,0,7.3,0.3,8.2c0.3,1.2,0.9,2.1,1.8,2.7c1.2,0.6,3.3,0.9,7,0.9h4.6
			c3.6,0,6.7-0.3,8.5-0.9c1.8-0.6,3.6-2.1,5.2-4.3c1.5-2.1,3-5.8,4.6-10.6H1034.5z"/>
		<path fill="#FFFFFF" d="M1050.3,324v25.8c0,3.9,0,6.4,0.3,7.3c0,0.9,0.6,1.8,1.2,2.4c0.6,0.6,2.1,0.9,3.9,0.9h0.9v2.1h-19.7v-2.1
			h1.5c2.1,0,3.6-0.3,4.3-0.9c0.6-0.6,0.9-1.2,1.2-2.1s0.3-3.3,0.3-7.6v-11.2c0-4.3-0.3-7-0.6-7.9s-0.9-1.5-1.5-1.8
			s-1.8-0.3-3.6-0.3h-1.2v-2.1c5.5-0.6,9.4-1.2,12.5-2.4C1049.7,324,1050.3,324,1050.3,324z M1041.5,305.2c0-1.2,0.6-2.4,1.5-3.3
			c0.9-0.9,2.1-1.5,3.3-1.5c1.2,0,2.4,0.6,3.3,1.5c0.9,0.9,1.2,2.1,1.2,3.3c0,1.2-0.3,2.4-1.2,3.3c-0.9,0.9-2.1,1.5-3.3,1.5
			c-1.2,0-2.4-0.6-3.3-1.5S1041.5,306.7,1041.5,305.2z"/>
		<path fill="#FFFFFF" d="M1067.3,364.1h-1.8v-49.5c0-3.6,0-6.1-0.3-7s-0.6-1.8-1.5-2.4c-0.9-0.6-2.1-0.9-4.3-0.9v-1.8
			c1.8,0,3.9-0.3,6.4-0.6c2.4-0.3,4.3-0.9,5.2-1.2h0.9v29.2c2.1-1.8,4.3-3.3,6.4-4.3c2.1-0.9,4.3-1.5,6.7-1.5
			c5.5,0,9.7,1.8,13.1,5.5c3.3,3.6,5.2,8.5,5.2,14.3c0,5.8-1.8,10.6-5.2,14.6s-7.9,5.8-13.7,5.8c-2.7,0-5.2-0.6-7.3-1.8
			c-2.1-1.2-3.6-2.7-5.2-5.2C1070.1,359.3,1068.5,361.4,1067.3,364.1z M1072.2,332.6v14.6c0,3.6,0.3,6.4,0.6,7.9
			c0.6,1.5,1.8,3.3,3.6,4.9s4.3,2.1,6.7,2.1c3.9,0,7-1.5,9.1-4.9c2.4-3,3.3-7.9,3.3-13.7c0-5.5-1.2-9.7-3.3-12.5
			c-2.1-2.7-4.9-4.3-8.5-4.3c-2.1,0-3.9,0.6-6.1,1.5C1075.8,328.9,1074,330.4,1072.2,332.6z"/>
		<path fill="#FFFFFF" d="M1122,333.5c0.9-2.7,2.7-4.9,4.9-6.7c2.4-1.8,4.6-2.7,6.7-2.7s3.6,0.6,4.6,1.8c1.2,1.2,1.8,2.4,1.8,3.6
			c0,0.9-0.3,1.5-0.9,2.1c-0.6,0.6-1.2,0.9-2.1,0.9c-1.5,0-2.7-1.2-3.3-3.3c-0.6-1.5-1.2-2.1-2.4-2.1c-1.2,0-2.7,0.9-4.6,2.7
			c-1.8,1.8-3,3.6-3.3,5.5c-0.6,1.8-0.9,4.6-0.9,7.9v6.7c0,3.9,0,6.4,0.3,7.3c0,0.9,0.6,1.8,1.2,2.4c0.6,0.6,2.1,0.9,3.9,0.9h1.2
			v2.1h-19.7v-2.1h0.9c1.8,0,3-0.3,3.9-0.6c0.9-0.6,1.2-1.2,1.5-2.1c0-0.9,0.3-3.3,0.3-7.9v-10.3c0-3.9,0-6.4-0.3-7.6
			c-0.3-1.2-0.6-1.8-1.2-2.4s-2.1-0.9-3.9-0.9h-0.9v-2.1c2.7-0.3,6.4-1.2,11.2-2.7C1121.4,326.5,1122,329.8,1122,333.5z"/>
		<path fill="#FFFFFF" d="M1181,355.9h1.5c-0.3,5.2-2.7,7.6-7.6,7.6c-2.1,0-3.6-0.6-4.9-1.5c-1.2-1.2-1.8-2.7-2.4-4.9
			c-3,2.1-5.8,3.6-8.2,4.9c-2.4,1.2-4.6,1.5-6.7,1.5c-2.4,0-4.6-0.6-6.4-2.1c-1.8-1.5-2.7-3.3-2.7-5.8c0-3,1.5-5.8,4.6-8.2
			s7.3-4.6,12.5-6.7l7-2.7v-1.8c0-2.4-0.3-4.3-0.6-5.5c-0.3-1.2-1.2-2.1-2.4-3c-1.2-0.9-3.3-1.2-5.5-1.2c-4.6,0-7,1.5-7.6,4.6
			c-0.6,3-1.8,4.6-3.6,4.6s-2.7-0.9-2.7-2.7s1.2-3.6,3.6-5.5s6.1-3,11.2-3c3.9,0,6.7,0.6,8.8,1.8c2.1,1.2,3.6,2.4,4.3,4.3
			c0.6,1.5,0.9,3.9,0.9,7v14.9c0,3.3,0.3,5.8,0.6,6.7s1.2,1.5,2.4,1.5C1179.1,360.2,1180.3,358.7,1181,355.9z M1167.9,340.1
			l-4.9,2.1c-7.9,3-11.5,7-11.5,11.8c0,1.8,0.6,3.3,1.5,4.6c0.9,1.2,2.4,1.8,3.9,1.8c1.5,0,3-0.6,4.9-1.5c1.8-0.9,3.9-2.4,6.4-4.3
			v-14.6H1167.9z"/>
		<path fill="#FFFFFF" d="M1198.9,333.5c0.9-2.7,2.7-4.9,4.9-6.7c2.4-1.8,4.6-2.7,6.7-2.7c2.1,0,3.6,0.6,4.6,1.8
			c1.2,1.2,1.8,2.4,1.8,3.6c0,0.9-0.3,1.5-0.9,2.1c-0.6,0.6-1.2,0.9-2.1,0.9c-1.5,0-2.7-1.2-3.3-3.3c-0.6-1.5-1.2-2.1-2.4-2.1
			c-1.2,0-2.7,0.9-4.6,2.7s-3,3.6-3.3,5.5c-0.6,1.8-0.9,4.6-0.9,7.9v6.7c0,3.9,0,6.4,0.3,7.3c0,0.9,0.6,1.8,1.2,2.4
			c0.6,0.6,2.1,0.9,3.9,0.9h1.2v2.1h-19.7v-2.1h0.9c1.8,0,3-0.3,3.9-0.6c0.9-0.6,1.2-1.2,1.5-2.1c0-0.9,0.3-3.3,0.3-7.9v-10.3
			c0-3.9,0-6.4-0.3-7.6c-0.3-1.2-0.6-1.8-1.2-2.4c-0.6-0.6-2.1-0.9-3.9-0.9h-0.9v-2.1c2.7-0.3,6.4-1.2,11.2-2.7
			C1198.3,326.5,1198.9,329.8,1198.9,333.5z"/>
		<path fill="#FFFFFF" d="M1242,355.6l8.5-20.7c1.2-3,1.8-4.6,1.8-4.9c0-1.5-1.5-2.4-4.9-2.4v-2.1h13.1v2.1c-2.1,0-3.3,0.6-4.6,1.5
			c-0.9,0.9-2.1,3-3.3,6.4l-16.4,39.8c-1.5,3.6-3,6.4-4.3,7.6c-1.2,1.5-2.4,2.1-3.9,2.1c-1.8,0-3-0.9-3-2.7c0-2.1,1.5-3.6,4.6-5.2
			c1.8-0.9,3-1.5,3.6-2.1c0.6-0.6,1.2-1.5,1.8-3l3.6-8.8l-14-29.8c-1.2-2.7-2.1-4.3-3-4.9c-0.9-0.6-2.1-0.9-4.3-0.9v-2.1h17v2.1
			c-3,0-4.6,0.6-4.6,1.8c0,0.3,0.6,1.8,1.8,4.6L1242,355.6z"/>
		<path fill="#FFFFFF" d="M145.2,461.1c0-5.8,1.8-10.3,5.8-14.3c3.6-3.9,8.5-5.8,14-5.8s10.3,1.8,14,5.8c3.6,3.9,5.8,8.5,5.8,14.3
			c0,6.1-1.8,11.2-5.8,14.6c-3.9,3.6-8.5,5.5-14,5.5s-10-1.8-14-5.5S145.2,467.1,145.2,461.1z M152.5,461.1c0,6.7,1.2,11.2,3.3,13.7
			c2.1,2.7,5.2,3.9,9.1,3.9s7-1.2,9.1-3.9s3-7.3,3-13.7s-0.9-11.2-3-14c-2.1-2.7-5.2-4.3-9.1-4.3s-7,1.5-9.1,4.3
			C153.7,450.1,152.5,454.7,152.5,461.1z"/>
		<path fill="#FFFFFF" d="M210.2,442.5v2.1h-7.6v22.2c0,3.9,0,6.4,0.3,7.3s0.6,1.8,1.2,2.4c0.6,0.6,2.1,0.9,3.9,0.9h1.8v2.1h-20.1
			v-2.1c2.1,0,3.6-0.3,4.3-0.6s1.2-0.9,1.5-1.8c0.3-0.9,0.3-3.6,0.3-7.9V445h-7v-2.4h7v-3.3c0-3.6,0-6.7,0.3-8.5
			c0.3-2.1,1.2-4.3,2.4-6.4c1.5-2.1,3-3.9,5.2-5.2c2.1-1.2,4.6-1.8,7.6-1.8c3.6,0,6.4,0.6,8.5,2.1c2.1,1.5,3.3,3,3.3,4.6
			c0,0.9-0.3,1.5-0.9,2.1c-0.6,0.6-1.2,0.9-2.1,0.9c-1.5,0-3-1.2-4.3-3.6c-1.5-2.7-3.3-3.9-5.8-3.9c-1.8,0-3.6,0.6-4.9,2.1
			c-1.5,1.2-2.1,3-2.4,5.2c-0.3,2.1-0.3,6.4-0.3,13.1v2.7H210.2z"/>
		<path fill="#FFFFFF" d="M254.6,479v-19.7h2.1c2.4,12.8,8.5,19.1,18.2,19.1c4.3,0,7.6-1.2,10-3.6s3.6-5.2,3.6-8.2s-0.9-5.8-3-7.6
			c-2.1-2.1-5.8-4.3-11.2-6.7c-4.9-2.1-8.5-3.9-11.2-5.5s-4.6-3.6-5.8-6.1c-1.5-2.4-2.1-5.2-2.1-8.2c0-4.3,1.5-7.9,4.6-10.9
			s7-4.3,11.5-4.3c2.7,0,5.2,0.3,7.3,1.2s4.6,2.7,7,5.2c1.5-1.5,2.1-3.3,2.4-5.5h2.1v16.1H288c-1.2-4.6-3-8.2-6.1-10.9
			c-3-2.7-6.4-3.9-10-3.9c-3.6,0-6.4,0.9-7.9,3c-1.8,1.8-2.4,4.3-2.4,6.4c0,2.7,1.2,5.2,3.3,7.3c2.1,2.1,5.8,4.3,11.5,6.7
			c5.2,2.4,9.1,4.3,11.5,5.8s4.3,3.3,5.8,6.1c1.5,2.4,2.1,5.5,2.1,8.8c0,5.2-1.8,9.4-5.2,12.8c-3.3,3.3-8.2,4.9-14,4.9
			c-6.7,0-12.2-2.4-16.7-7.6c-0.9,1.5-1.8,3.3-2.1,6.1h-3.3V479z"/>
		<path fill="#FFFFFF" d="M314.5,448.6c1.8-2.4,3.9-4.6,6.1-5.8c2.1-1.2,4.6-1.8,7.3-1.8c3,0,5.5,0.6,7.6,1.8
			c2.1,1.2,3.3,2.7,3.9,4.6c0.6,1.8,0.9,4.9,0.9,9.1v10.3c0,4.3,0,7,0.3,7.9c0.3,0.9,0.6,1.5,1.5,2.1c0.9,0.3,2.4,0.6,4.6,0.6v2.1
			h-19.1v-2.1h0.9c2.1,0,3.6-0.3,4.3-0.9c0.6-0.6,0.9-1.5,1.2-2.1c0.3-0.6,0.3-3.3,0.3-7.3v-11.2c0-3-0.3-5.5-0.6-6.7
			c-0.3-1.5-1.2-2.7-2.4-3.6c-1.2-0.9-3-1.5-5.2-1.5c-2.4,0-4.6,0.6-6.4,2.1c-1.8,1.2-3.6,3.3-4.9,6.1v14.6c0,4.3,0,6.7,0.3,7.6
			c0,0.9,0.6,1.8,1.5,2.1c0.9,0.6,2.1,0.6,4.3,0.6v2.1H302v-2.1h0.9c2.1,0,3.6-0.3,4.3-0.9c0.6-0.6,0.9-1.2,1.2-2.1
			c0-0.9,0.3-3.3,0.3-7.6v-36.5c0-3.6-0.3-6.1-0.9-7c-0.6-0.9-2.4-1.5-5.2-1.5v-2.1c4.6,0,8.5-0.6,11.5-1.8h0.9v31H314.5z"/>
		<path fill="#FFFFFF" d="M388.9,472.6h1.5c-0.3,5.2-2.7,7.6-7.6,7.6c-2.1,0-3.6-0.6-4.9-1.5c-1.2-1.2-1.8-2.7-2.4-4.9
			c-3,2.1-5.8,3.6-8.2,4.9c-2.4,1.2-4.6,1.5-6.7,1.5c-2.4,0-4.6-0.6-6.4-2.1c-1.8-1.5-2.7-3.3-2.7-5.8c0-3,1.5-5.8,4.6-8.2
			s7.3-4.6,12.5-6.7l7-2.7v-1.8c0-2.4-0.3-4.3-0.6-5.5c-0.3-1.2-1.2-2.1-2.4-3s-3.3-1.2-5.5-1.2c-4.6,0-7,1.5-7.6,4.6
			c-0.6,3-1.8,4.6-3.6,4.6c-1.8,0-2.7-0.9-2.7-2.7s1.2-3.6,3.6-5.5c2.4-1.8,6.1-3,11.2-3c3.9,0,6.7,0.6,8.8,1.8
			c2.1,1.2,3.6,2.4,4.3,3.9s0.9,3.9,0.9,7v14.9c0,3.3,0.3,5.8,0.6,6.7c0.3,0.9,1.2,1.5,2.4,1.5C387.4,477.2,388.6,475.7,388.9,472.6
			z M375.8,456.8l-4.9,2.1c-7.9,3-11.5,7-11.5,11.8c0,1.8,0.6,3.3,1.5,4.6c0.9,1.2,2.4,1.8,3.9,1.8c1.5,0,3-0.6,4.9-1.5
			c1.8-0.9,3.9-2.4,6.4-4.3v-14.6H375.8z"/>
		<path fill="#FFFFFF" d="M403.2,441h1.2c0.6,1.8,0.9,3.6,0.9,6.1c1.8-2.1,3.9-3.6,6.1-4.6c2.1-0.9,4.6-1.5,7-1.5
			c5.2,0,9.4,1.8,12.8,5.5c3.3,3.6,5.2,8.2,5.2,14.3c0,5.8-1.8,10.6-5.2,14.6c-3.3,3.9-7.9,5.8-13.4,5.8c-2.4,0-4.6-0.6-6.7-1.5
			s-3.9-2.4-6.1-3.9v14c0,4.3,0,7,0.3,7.9c0.3,0.9,0.6,1.5,1.5,2.1s2.1,0.6,4.3,0.6v2.1h-19.4v-2.1h1.2c2.1,0,3.6-0.3,4.3-0.9
			c0.6-0.6,0.9-1.2,1.2-2.1c0-0.9,0.3-3.3,0.3-7.6v-33.4c0-3.9,0-6.4-0.3-7.3c-0.3-0.9-0.6-1.8-1.2-2.4c-0.6-0.6-2.1-0.9-3.9-0.9
			h-1.2v-2.1C394.7,443.1,398.6,442.2,403.2,441z M405,472.6c1.5,2.1,3.3,3.3,5.2,4.6c1.8,0.9,3.6,1.5,5.8,1.5
			c3.3,0,6.4-1.5,8.8-4.3c2.4-3,3.6-7.6,3.6-14c0-5.5-1.2-9.7-3.6-12.5c-2.4-2.7-5.5-3.9-8.8-3.9c-2.1,0-3.9,0.6-5.8,1.5
			c-1.8,0.9-3.6,2.7-5.5,4.9v22.2H405z"/>
		<path fill="#FFFFFF" d="M476.7,455h-25.8c0,1.8-0.3,3-0.3,3.9c0,6.4,0.9,11.2,3,14.6c2.1,3.3,5.2,4.9,9.1,4.9
			c5.5,0,9.4-2.4,11.5-7.3h2.1c-0.9,3-2.7,5.5-5.8,7.3c-2.7,1.8-6.1,2.7-9.4,2.7c-3,0-6.1-0.9-8.8-2.4s-5.2-3.9-6.7-6.7
			c-1.8-3-2.7-6.4-2.7-10.6c0-5.8,1.8-10.6,5.2-14.6s7.6-5.8,12.8-5.8c4.9,0,8.5,1.5,11.2,4.6C475.2,448.3,476.4,451.6,476.7,455z
			 M468.8,453.2c0-0.6,0-1.2,0-1.8c0-2.7-0.9-4.6-2.4-6.1s-3.3-2.1-5.8-2.1c-5.5,0-8.8,3.3-9.7,10.3h17.9V453.2z"/>
		<path fill="#FFFFFF" d="M484,480.8v-12.2h1.8c2.1,7,5.8,10.6,10.9,10.6c2.4,0,3.9-0.6,5.2-2.1s1.8-3,1.8-4.6
			c0-1.8-0.6-3.6-1.8-4.9c-1.2-1.2-3.6-2.7-7.3-4.6c-3.6-1.8-6.4-3.6-7.9-5.5c-1.5-1.8-2.4-3.9-2.4-6.4c0-2.4,0.9-4.9,2.7-7
			c1.8-2.1,4.3-3.3,7.3-3.3c3.3,0,5.8,1.2,7.9,3.9c0.3-0.3,0.9-1.5,1.8-3.3h1.5v11.5H504c-0.6-2.7-1.8-5.2-3.6-7
			c-1.8-1.8-3.6-3-6.1-3c-1.8,0-3.3,0.6-4.3,1.5c-1.2,1.2-1.5,2.4-1.5,3.9s0.6,3,1.8,4.3c1.2,1.2,3.6,2.4,7,4.3
			c5.2,2.4,8.2,4.6,9.4,6.7c1.2,2.1,1.8,4.3,1.8,6.4c0,3.3-0.9,5.8-3,7.9s-4.9,3-7.9,3c-3.3,0-6.4-1.5-9.1-4.3
			c-0.9,0.9-1.5,2.1-2.1,3.9H484L484,480.8z"/>
		<path fill="#FFFFFF" d="M574.8,472.6h1.5c-0.3,5.2-2.7,7.6-7.6,7.6c-2.1,0-3.6-0.6-4.9-1.5c-1.2-1.2-1.8-2.7-2.4-4.9
			c-3,2.1-5.8,3.6-8.2,4.9c-2.4,1.2-4.6,1.5-6.7,1.5c-2.4,0-4.6-0.6-6.4-2.1c-1.8-1.5-2.7-3.3-2.7-5.8c0-3,1.5-5.8,4.6-8.2
			s7.3-4.6,12.5-6.7l7-2.7v-1.8c0-2.4-0.3-4.3-0.6-5.5c-0.3-1.2-1.2-2.1-2.4-3s-3.3-1.2-5.5-1.2c-4.6,0-7,1.5-7.6,4.6
			c-0.6,3-1.8,4.6-3.6,4.6s-2.7-0.9-2.7-2.7s1.2-3.6,3.6-5.5s6.1-3,11.2-3c3.9,0,6.7,0.6,8.8,1.8c2.1,1.2,3.6,2.4,4.3,3.9
			c0.6,1.5,0.9,3.9,0.9,7v14.9c0,3.3,0.3,5.8,0.6,6.7c0.3,0.9,1.2,1.5,2.4,1.5C573,477.2,574.2,475.7,574.8,472.6z M561.8,456.8
			l-4.9,2.1c-7.9,3-11.5,7-11.5,11.8c0,1.8,0.6,3.3,1.5,4.6c0.9,1.2,2.4,1.8,3.9,1.8s3-0.6,4.9-1.5c1.8-0.9,3.9-2.4,6.4-4.3v-14.6
			H561.8z"/>
		<path fill="#FFFFFF" d="M590,441h1.2c0.6,1.8,1.2,4.3,1.2,7.6c2.1-2.4,4.6-4.6,6.7-5.8c2.1-1.2,4.9-1.8,7.3-1.8
			c3,0,5.5,0.6,7.3,1.8c1.8,1.2,3,2.7,3.6,4.6c0.6,1.8,0.9,4.3,0.9,7.9v11.5c0,4.3,0,7,0.3,7.9c0,0.9,0.6,1.5,1.5,2.1
			c0.9,0.6,2.1,0.6,4.3,0.6v2.1h-18.8v-2.1h0.9c2.1,0,3.6-0.3,4.3-0.9c0.6-0.6,0.9-1.2,1.2-2.1c0-0.9,0-3.3,0-7.3v-11.8
			c0-3,0-4.9-0.3-6.4c-0.3-1.2-0.9-2.4-2.4-3.3c-1.2-0.9-2.7-1.5-4.9-1.5s-4.3,0.6-6.4,1.8c-2.1,1.2-3.9,3.3-5.8,5.8v15.2
			c0,4.3,0,7,0.3,7.9c0.3,0.9,0.6,1.5,1.5,2.1c0.9,0.6,2.1,0.6,4.6,0.6v2.1H580v-2.1c2.1,0,3.6-0.3,4.3-0.6c0.6-0.3,1.2-0.9,1.5-1.8
			c0.3-0.9,0.3-3.6,0.3-7.9v-10.9c0-4.3,0-7-0.3-7.9s-0.6-1.5-1.5-2.1c-0.9-0.6-2.1-0.6-4.6-0.6v-2.1
			C583.3,442.8,586.7,442.2,590,441z"/>
		<path fill="#FFFFFF" d="M661.1,446.5v-14.3c0-3.9,0-6.4-0.3-7.3c-0.3-0.9-0.6-1.8-1.2-2.4c-0.6-0.6-2.1-0.9-3.9-0.9h-0.9v-2.1
			c3.6,0,7.6-0.6,11.8-1.8h0.9v49.5c0,4.3,0,7,0.3,7.9c0,0.9,0.6,1.5,1.5,2.1c0.9,0.3,2.1,0.6,4.6,0.6v2.1c-4.3,0-8.2,0.6-11.5,1.2
			c-0.3-1.5-0.6-3.6-0.6-6.7c-2.1,2.1-4.6,3.9-7,4.9c-2.4,1.2-4.9,1.5-7.3,1.5c-4.9,0-8.8-1.8-12.5-5.8c-3.3-3.9-5.2-8.5-5.2-14
			c0-6.1,1.8-10.9,5.5-14.6c3.6-3.6,7.9-5.5,12.8-5.5c2.4,0,4.9,0.3,7,1.2C657.2,443.1,659,444.7,661.1,446.5z M661.1,449.2
			c-2.1-1.8-3.9-3-6.1-3.9c-2.1-0.9-3.9-1.2-6.1-1.2c-3.3,0-6.4,1.2-8.5,3.9c-2.1,2.7-3.3,7-3.3,12.8c0,6.1,1.2,10.3,3.6,13.4
			c2.4,2.7,5.2,4.3,8.5,4.3c2.4,0,4.3-0.6,6.4-1.5c1.8-1.2,3.6-2.7,5.5-4.9V449.2z"/>
		<path fill="#FFFFFF" d="M699.7,418.8l10-0.6c8.5-0.3,14-0.6,17-0.6c9.1,0,16.1,1.5,21.3,4.3s8.8,6.4,11.2,11.2s3.6,10.3,3.6,16.4
			c0,4.6-0.6,8.5-2.1,12.2c-1.2,3.6-3.3,6.7-5.5,9.1c-2.1,2.4-5.2,4.3-8.2,5.5c-3,1.2-6.1,2.1-8.8,2.4c-2.7,0.3-6.7,0.6-11.8,0.6
			h-27v-2.1h2.4c2.7,0,4.6-0.3,5.5-0.9c0.9-0.6,1.5-1.8,1.8-3c0.3-1.5,0.3-4.6,0.3-9.7V434c0-4.9,0-7.9-0.3-9.4
			c-0.3-1.5-0.9-2.4-1.8-3c-0.9-0.6-3-0.9-6.1-0.9h-1.8v-1.8H699.7z M718.5,420.1v40.7c0,6.1,0,10,0.3,11.5s0.9,3,2.1,3.6
			c1.2,0.6,3.6,0.9,7.3,0.9c5.5,0,9.7-0.6,13.1-2.1c3.3-1.5,6.4-4.3,8.5-8.5c2.4-4.3,3.3-9.7,3.3-16.4c0-5.2-0.6-9.7-2.1-14
			c-1.5-4.3-3.3-7.3-5.8-10c-2.4-2.4-5.2-4.3-8.2-5.2s-7-1.5-11.5-1.5C723.4,419.7,721,420.1,718.5,420.1z"/>
		<path fill="#FFFFFF" d="M782.6,441v25.8c0,3.9,0,6.4,0.3,7.3c0.3,0.9,0.6,1.8,1.2,2.4c0.6,0.6,2.1,0.9,3.9,0.9h0.9v2.1h-19.7v-2.1
			h1.5c2.1,0,3.6-0.3,4.3-0.9c0.6-0.6,0.9-1.2,1.2-2.1c0-0.9,0.3-3.3,0.3-7.6v-11.2c0-4.3-0.3-7-0.6-7.9c-0.3-0.9-0.9-1.5-1.5-1.8
			c-0.6-0.3-1.8-0.3-3.6-0.3h-1.2v-2.1c5.5-0.6,9.4-1.2,12.5-2.4H782.6z M774.1,422.2c0-1.2,0.6-2.4,1.5-3.3
			c0.9-0.9,2.1-1.5,3.3-1.5s2.4,0.6,3.3,1.5c0.9,0.9,1.2,2.1,1.2,3.3c0,1.2-0.3,2.4-1.2,3.3s-2.1,1.5-3.3,1.5s-2.4-0.6-3.3-1.5
			C774.4,424.6,774.1,423.4,774.1,422.2z"/>
		<path fill="#FFFFFF" d="M803.9,441h0.3c0.9,2.1,1.2,4.6,1.2,7.9c2.1-2.7,4.3-4.6,6.4-5.8c2.4-1.2,4.9-1.8,7.6-1.8
			c3,0,5.5,0.6,7.3,2.1s3.3,3.3,3.9,6.1c2.4-2.7,4.6-4.9,7-6.1c2.4-1.5,4.9-2.1,7.3-2.1c2.7,0,5.2,0.6,7.3,2.1
			c2.1,1.2,3,2.7,3.6,4.6c0.6,1.8,0.6,4.3,0.6,8.2v10.6c0,4.3,0,7,0.3,7.9s0.6,1.5,1.5,2.1c0.9,0.3,2.1,0.6,4.6,0.6v2.1h-18.2v-2.1
			c1.8,0,3.3-0.3,4.3-0.6c0.9-0.3,1.2-1.2,1.5-2.1s0.3-3.6,0.3-7.9v-12.5c0-2.4,0-4.3-0.3-5.8c-0.3-1.2-0.9-2.4-2.1-3.3
			c-1.2-0.9-2.7-1.2-4.6-1.2s-3.9,0.6-5.8,2.1c-1.8,1.2-3.9,3.3-6.1,6.1v14.6c0,3.9,0,6.4,0.3,7.3s0.6,1.8,1.2,2.4
			c0.6,0.6,2.1,0.9,3.9,0.9v2.1h-17.9v-2.1c2.1,0,3.3-0.3,4.3-0.6c0.9-0.3,1.2-0.9,1.5-1.8c0.3-0.9,0.3-3.6,0.3-7.9v-10.3
			c0-3.3,0-5.5-0.3-7c-0.3-1.5-0.9-2.7-2.4-3.6c-1.2-0.9-3-1.5-4.9-1.5s-3.6,0.6-5.8,1.8c-1.8,1.2-3.9,3-6.1,5.5v14.9
			c0,3.9,0,6.7,0.3,7.6c0,0.9,0.6,1.8,1.2,2.1c0.9,0.6,2.1,0.9,4.3,0.9v2.1h-18.2v-2.1c2.1,0,3.3-0.3,4.3-0.6
			c0.9-0.3,1.2-1.2,1.5-1.8c0.3-0.9,0.3-3.6,0.3-7.9v-10.9c0-4.3,0-6.7-0.3-7.6c0-0.9-0.6-1.5-1.5-2.1c-0.9-0.6-2.1-0.6-4.3-0.6
			v-2.1C797.5,442.5,801.2,441.9,803.9,441z"/>
		<path fill="#FFFFFF" d="M901.7,455h-25.8c0,1.8-0.3,3-0.3,3.9c0,6.4,0.9,11.2,3,14.6c2.1,3.3,5.2,4.9,9.1,4.9
			c5.5,0,9.4-2.4,11.5-7.3h2.1c-0.9,3-2.7,5.5-5.8,7.3c-2.7,1.8-6.1,2.7-9.4,2.7c-3,0-6.1-0.9-8.8-2.4s-5.2-3.9-6.7-6.7
			c-1.8-3-2.7-6.4-2.7-10.6c0-5.8,1.8-10.6,5.2-14.6c3.3-3.9,7.6-5.8,12.8-5.8c4.9,0,8.5,1.5,11.2,4.6
			C900.2,448.3,901.7,451.6,901.7,455z M893.8,453.2c0-0.6,0-1.2,0-1.8c0-2.7-0.9-4.6-2.4-6.1s-3.3-2.1-5.8-2.1
			c-5.5,0-8.8,3.3-9.7,10.3h17.9V453.2z"/>
		<path fill="#FFFFFF" d="M918.1,441h1.2c0.6,1.8,1.2,4.3,1.2,7.6c2.1-2.4,4.6-4.6,6.7-5.8c2.1-1.2,4.9-1.8,7.3-1.8
			c3,0,5.5,0.6,7.3,1.8c1.8,1.2,3,2.7,3.6,4.6c0.6,1.8,0.9,4.3,0.9,7.9v11.5c0,4.3,0,7,0.3,7.9c0,0.9,0.6,1.5,1.5,2.1
			c0.9,0.6,2.1,0.6,4.3,0.6v2.1h-18.8v-2.1h0.9c2.1,0,3.6-0.3,4.3-0.9c0.6-0.6,0.9-1.2,1.2-2.1c0-0.9,0-3.3,0-7.3v-11.8
			c0-3,0-4.9-0.3-6.4c-0.3-1.2-0.9-2.4-2.4-3.3c-1.2-0.9-2.7-1.5-4.9-1.5c-2.1,0-4.3,0.6-6.4,1.8c-2.1,1.2-3.9,3.3-5.8,5.8v15.2
			c0,4.3,0,7,0.3,7.9s0.6,1.5,1.5,2.1c0.9,0.6,2.1,0.6,4.6,0.6v2.1h-18.5v-2.1c2.1,0,3.6-0.3,4.3-0.6c0.6-0.3,1.2-0.9,1.5-1.8
			c0.3-0.9,0.3-3.6,0.3-7.9v-10.9c0-4.3,0-7-0.3-7.9c-0.3-0.9-0.6-1.5-1.5-2.1c-0.9-0.6-2.1-0.6-4.6-0.6v-2.1
			C911.2,442.8,914.5,442.2,918.1,441z"/>
		<path fill="#FFFFFF" d="M958.3,480.8v-12.2h1.8c2.1,7,5.8,10.6,10.9,10.6c2.4,0,3.9-0.6,5.2-2.1s1.8-3,1.8-4.6
			c0-1.8-0.6-3.6-1.8-4.9c-1.2-1.2-3.6-2.7-7.3-4.6c-3.6-1.8-6.4-3.6-7.9-5.5c-1.5-1.8-2.4-3.9-2.4-6.4c0-2.4,0.9-4.9,2.7-7
			c1.8-2.1,4.3-3.3,7.3-3.3c3.3,0,5.8,1.2,7.9,3.9c0.3-0.3,0.9-1.5,1.8-3.3h1.5v11.5h-1.5c-0.6-2.7-1.8-5.2-3.6-7
			c-1.8-1.8-3.6-3-6.1-3c-1.8,0-3.3,0.6-4.3,1.5c-1.2,1.2-1.5,2.4-1.5,3.9s0.6,3,1.8,4.3s3.6,2.4,7,4.3c5.2,2.4,8.2,4.6,9.4,6.7
			c1.2,2.1,1.8,4.3,1.8,6.4c0,3.3-0.9,5.8-3,7.9c-2.1,2.1-4.9,3-7.9,3c-3.3,0-6.4-1.5-9.1-4.3c-0.9,0.9-1.5,2.1-2.1,3.9H958.3
			L958.3,480.8z"/>
		<path fill="#FFFFFF" d="M1000.2,441v25.8c0,3.9,0,6.4,0.3,7.3s0.6,1.8,1.2,2.4c0.6,0.6,2.1,0.9,3.9,0.9h0.9v2.1h-19.7v-2.1h1.5
			c2.1,0,3.6-0.3,4.3-0.9c0.6-0.6,0.9-1.2,1.2-2.1c0-0.9,0.3-3.3,0.3-7.6v-11.2c0-4.3-0.3-7-0.6-7.9c-0.3-0.9-0.9-1.5-1.5-1.8
			c-0.6-0.3-1.8-0.3-3.6-0.3h-1.2v-2.1c5.5-0.6,9.4-1.2,12.5-2.4H1000.2z M991.4,422.2c0-1.2,0.6-2.4,1.5-3.3
			c0.9-0.9,2.1-1.5,3.3-1.5s2.4,0.6,3.3,1.5c0.9,0.9,1.2,2.1,1.2,3.3c0,1.2-0.3,2.4-1.2,3.3c-0.9,0.9-2.1,1.5-3.3,1.5
			s-2.4-0.6-3.3-1.5C992,424.6,991.4,423.4,991.4,422.2z"/>
		<path fill="#FFFFFF" d="M1011.7,461.1c0-5.8,1.8-10.3,5.8-14.3c3.6-3.9,8.5-5.8,14-5.8s10.3,1.8,14,5.8c3.6,3.9,5.8,8.5,5.8,14.3
			c0,6.1-1.8,11.2-5.8,14.6c-3.9,3.6-8.5,5.5-14,5.5c-5.5,0-10-1.8-14-5.5C1013.5,472,1011.7,467.1,1011.7,461.1z M1019.3,461.1
			c0,6.7,1.2,11.2,3.3,13.7c2.1,2.7,5.2,3.9,9.1,3.9c3.9,0,7-1.2,9.1-3.9c2.1-2.7,3-7.3,3-13.7s-0.9-11.2-3-14
			c-2.1-2.7-5.2-4.3-9.1-4.3c-3.9,0-7,1.5-9.1,4.3C1020.2,450.1,1019.3,454.7,1019.3,461.1z"/>
		<path fill="#FFFFFF" d="M1067.3,441h1.2c0.6,1.8,1.2,4.3,1.2,7.6c2.1-2.4,4.6-4.6,6.7-5.8c2.1-1.2,4.9-1.8,7.3-1.8
			c3,0,5.5,0.6,7.3,1.8c1.8,1.2,3,2.7,3.6,4.6c0.6,1.8,0.9,4.3,0.9,7.9v11.5c0,4.3,0,7,0.3,7.9c0,0.9,0.6,1.5,1.5,2.1
			c0.9,0.6,2.1,0.6,4.3,0.6v2.1h-18.8v-2.1h0.9c2.1,0,3.6-0.3,4.3-0.9c0.6-0.6,0.9-1.2,1.2-2.1c0-0.9,0-3.3,0-7.3v-11.8
			c0-3,0-4.9-0.3-6.4c-0.3-1.2-0.9-2.4-2.4-3.3c-1.2-0.9-2.7-1.5-4.9-1.5c-2.1,0-4.3,0.6-6.4,1.8c-2.1,1.2-3.9,3.3-5.8,5.8v15.2
			c0,4.3,0,7,0.3,7.9s0.6,1.5,1.5,2.1c0.9,0.6,2.1,0.6,4.6,0.6v2.1h-18.5v-2.1c2.1,0,3.6-0.3,4.3-0.6c0.6-0.3,1.2-0.9,1.5-1.8
			c0.3-0.9,0.3-3.6,0.3-7.9v-10.9c0-4.3,0-7-0.3-7.9s-0.6-1.5-1.5-2.1c-0.9-0.6-2.1-0.6-4.6-0.6v-2.1
			C1060.3,442.8,1063.7,442.2,1067.3,441z"/>
		<path fill="#FFFFFF" d="M1107.4,480.8v-12.2h1.8c2.1,7,5.8,10.6,10.9,10.6c2.4,0,3.9-0.6,5.2-2.1s1.8-3,1.8-4.6
			c0-1.8-0.6-3.6-1.8-4.9c-1.2-1.2-3.6-2.7-7.3-4.6c-3.6-1.8-6.4-3.6-7.9-5.5c-1.5-1.8-2.4-3.9-2.4-6.4c0-2.4,0.9-4.9,2.7-7
			c1.8-2.1,4.3-3.3,7.3-3.3c3.3,0,5.8,1.2,7.9,3.9c0.3-0.3,0.9-1.5,1.8-3.3h1.5v11.5h-1.8c-0.6-2.7-1.8-5.2-3.6-7
			c-1.8-1.8-3.6-3-6.1-3c-1.8,0-3.3,0.6-4.3,1.5c-1.2,1.2-1.5,2.4-1.5,3.9s0.6,3,1.8,4.3s3.6,2.4,7,4.3c5.2,2.4,8.2,4.6,9.4,6.7
			c1.2,2.1,1.8,4.3,1.8,6.4c0,3.3-0.9,5.8-3,7.9c-2.1,2.1-4.9,3-7.9,3c-3.3,0-6.4-1.5-9.1-4.3c-0.9,0.9-1.5,2.1-2.1,3.9H1107.4
			L1107.4,480.8z"/>
	</g>
</g>
<g id="Layer_10" display="none">
</g>
<g id="Layer_11" display="none">
</g>
<g id="Layer_12" display="none">
</g>
<g id="Layer_13" display="none">
</g>
<g id="Layer_14" display="none">
</g>
</svg>
