<?xml version="1.0" encoding="utf-8"?>
<!-- Generator: Adobe Illustrator 17.1.0, SVG Export Plug-In . SVG Version: 6.00 Build 0)  -->
<!DOCTYPE svg PUBLIC "-//W3C//DTD SVG 1.1//EN" "http://www.w3.org/Graphics/SVG/1.1/DTD/svg11.dtd">
<svg version="1.1" xmlns="http://www.w3.org/2000/svg" xmlns:xlink="http://www.w3.org/1999/xlink" x="0px" y="0px"
	 viewBox="0 0 421.3 76" enable-background="new 0 0 421.3 76" xml:space="preserve">
<g id="Epilogue" display="none">
</g>
<g id="Layer_2" display="none">
</g>
<g id="Layer_3" display="none">
</g>
<g id="Layer_4" display="none">
</g>
<g id="Layer_5" display="none">
</g>
<g id="Layer_6" display="none">
</g>
<g id="Layer_7" display="none">
	<g display="inline">
		<path fill="#666666" d="M195.3,174.3l-15.6-6.8l91.5-207.8l-5.7,1.6l-4.6-16.4l8.2-2.3c3.9-1.1,7.5-2.2,11.1-3.2l30.8-70l4.2-1
			c28.3-6.5,54,2.5,58.6,20.4c3.5,13.6-3.2,39.3-81.1,64.5L195.3,174.3z M323-115.8l-21.1,47.9c48-17.8,56.6-33.7,55.3-39
			c-0.8-3.1-4.9-6.1-10.9-7.9C339.7-116.9,331.3-117.2,323-115.8z"/>
	</g>
	<g display="inline">
		<path fill="#666666" d="M133.1,70.2c-6.7,0-13.2-0.9-19.1-3.2C102.4,62.7,94.4,54.1,90,41.6c-3.4-9.8-2.5-19.4,2.6-28.7
			c5.9-10.8,17.7-21,35.1-30.2c-1.3-0.6-2.5-1.2-3.5-1.9c-10-6.7-12.9-18.2-8.2-31.5c4.5-12.6,15.9-26.9,30.5-38.3
			c15.7-12.2,32-18.6,44.7-17.3c5.2,0.5,12.8,2.5,18.7,9.5c2-4.8,4.3-10,6.4-15l3.3-7.8l15.7,6.6l-3.3,7.8c0,0.1-3.5,8.4-7,16.6
			c-2.1,4.8-3.7,8.7-5,11.4c-0.8,1.7-1.4,3-1.8,4c-3.3,6.7-8.1,6.5-10.6,5.8c-3.5-1-6-3.9-6.3-7.5c-2.2-13.6-9-14.2-11.6-14.5
			c-17.3-1.6-50.2,23.7-57.6,44.4c-3.1,8.5,0.2,10.8,1.6,11.7c4.3,2.9,19,2.7,38-1.8c9.6-3,16.3-4.6,16.7-4.7l4.6,16.3
			c-0.4,0.1-6.8,2.2-15.8,4.4c-23.9,7.5-59.7,22-69.7,40.2c-2.8,5-3.2,9.8-1.4,15c2.6,7.6,7.2,12.5,13.9,15.1
			c20.9,7.9,57.5-8.4,69.8-15.3l7.4-4.2l8.3,14.8l-7.4,4.2C196.4,51.6,163,70.2,133.1,70.2z"/>
	</g>
</g>
<g id="Layer_8" display="none">
</g>
<g id="Layer_9">
	<text transform="matrix(1 0 0 1 5.2688 25.6864)"><tspan x="0" y="0" font-family="'Baskerville'" font-size="30.3977">The A. Square Memorial Library</tspan><tspan x="43.5" y="38.5" font-family="'Baskerville'" font-size="30.3977">of Shapes and Dimensions</tspan></text>
</g>
<g id="Layer_10" display="none">
</g>
<g id="Layer_11" display="none">
</g>
<g id="Layer_12" display="none">
</g>
<g id="Layer_13" display="none">
</g>
<g id="Layer_14" display="none">
</g>
</svg>
